<svg width="192" height="192" viewBox="0 0 192 192" fill="none" xmlns="http://www.w3.org/2000/svg">
<path d="M0 62.4C0 49.0126 0 42.3188 1.32624 36.7946C5.5399 19.2435 19.2435 5.5399 36.7946 1.32624C42.3188 0 49.0126 0 62.4 0H129.6C142.987 0 149.681 0 155.205 1.32624C172.757 5.5399 186.46 19.2435 190.674 36.7946C192 42.3188 192 49.0126 192 62.4V129.6C192 142.987 192 149.681 190.674 155.205C186.46 172.757 172.757 186.46 155.205 190.674C149.681 192 142.987 192 129.6 192H62.4C49.0126 192 42.3188 192 36.7946 190.674C19.2435 186.46 5.5399 172.757 1.32624 155.205C0 149.681 0 142.987 0 129.6V62.4Z" fill="#6495ED"/>
</svg>
