<svg width="1024" height="512" viewBox="0 0 1024 512" fill="none" xmlns="http://www.w3.org/2000/svg">
<rect width="1024" height="512" fill="#EEEEEE"/>
<rect x="32" y="128" width="256" height="256" fill="white"/>
<rect x="64" y="160" width="192" height="192" rx="48" stroke="#444444" stroke-width="4"/>
<rect x="320" y="64" width="384" height="384" fill="white"/>
<mask id="mask0_1_2" style="mask-type:alpha" maskUnits="userSpaceOnUse" x="320" y="64" width="384" height="384">
<rect x="320" y="64" width="384" height="384" fill="white"/>
</mask>
<g mask="url(#mask0_1_2)">
<rect x="85" y="171" width="512" height="512" rx="128" stroke="#444444" stroke-width="8"/>
<path fill-rule="evenodd" clip-rule="evenodd" d="M340.677 167H341.323C401.39 167 446.862 167 481.984 171.722C517.284 176.468 542.726 186.05 562.338 205.662C581.95 225.274 591.532 250.716 596.278 286.016C601 321.138 601 366.61 601 426.677V427.323C601 487.39 601 532.862 596.278 567.984C591.532 603.284 581.95 628.726 562.338 648.338C542.726 667.95 517.284 677.532 481.984 682.278C446.862 687 401.39 687 341.323 687H340.677C280.61 687 235.138 687 200.016 682.278C164.716 677.532 139.274 667.95 119.662 648.338C100.05 628.726 90.4679 603.284 85.722 567.984C81 532.862 81 487.39 81 427.323V426.677C81 366.61 81 321.138 85.722 286.016C90.4679 250.716 100.05 225.274 119.662 205.662C139.274 186.05 164.716 176.468 200.016 171.722C235.138 167 280.61 167 340.677 167ZM201.082 179.651C166.67 184.277 143.197 193.441 125.319 211.319C107.441 229.197 98.2773 252.67 93.6506 287.082C89.0085 321.61 89 366.547 89 427C89 487.453 89.0085 532.39 93.6506 566.918C98.2773 601.33 107.441 624.803 125.319 642.681C143.197 660.559 166.67 669.723 201.082 674.349C235.61 678.992 280.547 679 341 679C401.453 679 446.39 678.992 480.918 674.349C515.33 669.723 538.803 660.559 556.681 642.681C574.559 624.803 583.723 601.33 588.349 566.918C592.992 532.39 593 487.453 593 427C593 366.547 592.992 321.61 588.349 287.082C583.723 252.67 574.559 229.197 556.681 211.319C538.803 193.441 515.33 184.277 480.918 179.651C446.39 175.008 401.453 175 341 175C280.547 175 235.61 175.008 201.082 179.651Z" fill="#2A90D9"/>
</g>
<rect x="731" y="128" width="256" height="256" fill="white"/>
<path fill-rule="evenodd" clip-rule="evenodd" d="M863.839 158H864.161C886.652 158 903.732 158 916.936 159.775C930.228 161.562 939.892 165.182 947.355 172.645C954.818 180.108 958.438 189.772 960.225 203.064C962 216.268 962 233.348 962 255.839V256.161C962 278.652 962 295.732 960.225 308.936C958.438 322.228 954.818 331.892 947.355 339.355C939.892 346.818 930.228 350.438 916.936 352.225C903.732 354 886.652 354 864.161 354H863.839C841.348 354 824.268 354 811.064 352.225C797.772 350.438 788.108 346.818 780.645 339.355C773.182 331.892 769.562 322.228 767.775 308.936C766 295.732 766 278.652 766 256.161V255.839C766 233.348 766 216.268 767.775 203.064C769.562 189.772 773.182 180.108 780.645 172.645C788.108 165.182 797.772 161.562 811.064 159.775C824.268 158 841.348 158 863.839 158ZM811.597 163.74C798.748 165.467 790.069 168.877 783.473 175.473C776.877 182.069 773.467 190.748 771.74 203.597C770.004 216.504 770 233.316 770 256C770 278.684 770.004 295.496 771.74 308.403C773.467 321.252 776.877 329.931 783.473 336.527C790.069 343.123 798.748 346.533 811.597 348.26C824.504 349.996 841.316 350 864 350C886.684 350 903.496 349.996 916.403 348.26C929.252 346.533 937.931 343.123 944.527 336.527C951.123 329.931 954.533 321.252 956.26 308.403C957.996 295.496 958 278.684 958 256C958 233.316 957.996 216.504 956.26 203.597C954.533 190.748 951.123 182.069 944.527 175.473C937.931 168.877 929.252 165.467 916.403 163.74C903.496 162.004 886.684 162 864 162C841.316 162 824.504 162.004 811.597 163.74Z" fill="#2A90D9"/>
</svg>
