<svg width="192" height="192" viewBox="0 0 192 192" fill="none" xmlns="http://www.w3.org/2000/svg">
<path d="M0 76.8C0 49.9175 0 36.4762 5.23169 26.2085C9.83361 17.1767 17.1767 9.83361 26.2085 5.23169C36.4762 0 49.9175 0 76.8 0H115.2C142.083 0 155.524 0 165.792 5.23169C174.823 9.83361 182.166 17.1767 186.768 26.2085C192 36.4762 192 49.9175 192 76.8V115.2C192 142.083 192 155.524 186.768 165.792C182.166 174.823 174.823 182.166 165.792 186.768C155.524 192 142.083 192 115.2 192H76.8C49.9175 192 36.4762 192 26.2085 186.768C17.1767 182.166 9.83361 174.823 5.23169 165.792C0 155.524 0 142.083 0 115.2V76.8Z" fill="#6495ED"/>
</svg>
