<svg xmlns="http://www.w3.org/2000/svg" width="520" height="220" version="1.1"><marker id="arrow" markerHeight="8" markerWidth="8" orient="auto" refX="10.5" refY="5" viewBox="-1 0 12 10"><path d="M 0 0 L 10 5 L 0 10"/></marker><g><text x="60" y="30" alignment-baseline="middle" text-anchor="end" transform="translate(0,40)">master</text><path stroke="#000" stroke-width="2" d="M70 30 H 500" transform="translate(0,40)"/><g transform="translate(0,40)"><path fill="transparent" stroke="#000" stroke-width="2" d="M100 30 l 20 30 H 200"/><text x="110" y="60" alignment-baseline="middle" text-anchor="end">2.0</text><circle cx="120" cy="60" r="5"/><text x="110" y="60" alignment-baseline="middle" text-anchor="end" transform="rotate(-60 120,60)">v2.0.0-beta0</text><circle cx="200" cy="60" r="5"/><text x="190" y="60" alignment-baseline="middle" text-anchor="end" transform="rotate(-60 200,60)">v2.0.0</text></g><g transform="translate(0,40) translate(130,0)"><path fill="transparent" stroke="#000" stroke-width="2" d="M100 30 l 20 30 H 200"/><text x="110" y="60" alignment-baseline="middle" text-anchor="end">2.1</text><circle cx="120" cy="60" r="5"/><text x="110" y="60" alignment-baseline="middle" text-anchor="end" transform="rotate(-60 120,60)">v2.1.0-beta0</text><circle cx="160" cy="60" r="5"/><text x="150" y="60" alignment-baseline="middle" text-anchor="end" transform="rotate(-60 160,60)">v2.1.0-beta1</text><circle cx="200" cy="60" r="5"/><text x="190" y="60" alignment-baseline="middle" text-anchor="end" transform="rotate(-60 200,60)">v2.1.0</text></g><g transform="translate(0,40) translate(260,0)"><path fill="transparent" stroke="#000" stroke-width="2" d="M100 30 l 20 30 H 200"/><text x="110" y="60" alignment-baseline="middle" text-anchor="end">3.0</text><circle cx="120" cy="60" r="5"/><text x="110" y="60" alignment-baseline="middle" text-anchor="end" transform="rotate(-60 120,60)">v3.0.0-beta0</text><circle cx="200" cy="60" r="5"/><text x="190" y="60" alignment-baseline="middle" text-anchor="end" transform="rotate(-60 200,60)">v3.0.0</text></g><g transform="translate(0,40) translate(160,30)"><circle cx="0" cy="0" r="3"/><text x="10" y="0" alignment-baseline="middle" text-anchor="start" transform="rotate(-60 0,0)">bug fix</text><path stroke="#000" stroke-dasharray="2 2" marker-end="url(#arrow)" d="M0 0 l0,30"/></g><g transform="translate(0,40) translate(260,30)"><circle cx="0" cy="0" r="3"/><text x="10" y="0" alignment-baseline="middle" text-anchor="start" transform="rotate(-60 0,0)">bug fix</text><path stroke="#000" stroke-dasharray="2 2" marker-end="url(#arrow)" d="M0 0 l0,30"/></g><g transform="translate(0,40) translate(280,30)"><circle cx="0" cy="0" r="3"/><text x="10" y="0" alignment-baseline="middle" text-anchor="start" transform="rotate(-60 0,0)">bug fix</text><path stroke="#000" stroke-dasharray="2 2" marker-end="url(#arrow)" d="M0 0 l0,30"/></g><g transform="translate(0,40) translate(400,30)"><circle cx="0" cy="0" r="3"/><text x="10" y="0" alignment-baseline="middle" text-anchor="start" transform="rotate(-60 0,0)">bug fix</text><path stroke="#000" stroke-dasharray="2 2" marker-end="url(#arrow)" d="M0 0 l0,30"/></g><g transform="translate(0,40) translate(430,30)"><circle cx="0" cy="0" r="3"/><text x="10" y="0" alignment-baseline="middle" text-anchor="start" transform="rotate(-60 0,0)">bug fix</text><path stroke="#000" stroke-dasharray="2 2" marker-end="url(#arrow)" d="M0 0 l0,30"/></g><g transform="translate(0,40) translate(130,30)"><circle cx="0" cy="0" r="3"/><text x="10" y="0" alignment-baseline="middle" text-anchor="start" transform="rotate(-60 0,0)">feature</text></g><g transform="translate(0,40) translate(200,30)"><circle cx="0" cy="0" r="3"/><text x="10" y="0" alignment-baseline="middle" text-anchor="start" transform="rotate(-60 0,0)">feature</text></g><g transform="translate(0,40) translate(340,30)"><circle cx="0" cy="0" r="3"/><text x="10" y="0" alignment-baseline="middle" text-anchor="start" transform="rotate(-60 0,0)">feature</text></g><g transform="translate(0,40) translate(310,30)"><circle cx="0" cy="0" r="3"/><text x="10" y="0" alignment-baseline="middle" text-anchor="start" transform="rotate(-60 0,0)"><tspan>chromium</tspan><tspan x="10" dy="10">update</tspan></text></g><g><text x="50" y="0" alignment-baseline="text-after-edge" text-anchor="middle" transform="translate(0,40) translate(100,160)">~1 week</text><path fill="transparent" stroke="#000" stroke-width="2" d="M0 0 l0 10 l0 -5 H100l0 -5l0 10" transform="translate(0,40) translate(100,160)"/></g><g><text x="50" y="0" alignment-baseline="text-after-edge" text-anchor="middle" transform="translate(0,40) translate(230,160)">~1 week</text><path fill="transparent" stroke="#000" stroke-width="2" d="M0 0 l0 10 l0 -5 H100l0 -5l0 10" transform="translate(0,40) translate(230,160)"/></g><g><text x="50" y="0" alignment-baseline="text-after-edge" text-anchor="middle" transform="translate(0,40) translate(360,160)">~1 week</text><path fill="transparent" stroke="#000" stroke-width="2" d="M0 0 l0 10 l0 -5 H100l0 -5l0 10" transform="translate(0,40) translate(360,160)"/></g></g></svg>